<svg version="1.1" id="Layer_1" xmlns="http://www.w3.org/2000/svg" xmlns:xlink="http://www.w3.org/1999/xlink" x="0px" y="0px"
	 width="100%" viewBox="0 0 588 577" enable-background="new 0 0 588 577" xml:space="preserve">
<path fill="#FBFBFB" opacity="1.000000" stroke="none" 
	d="
M317.000000,578.000000 
	C211.333328,578.000000 106.166664,578.000000 1.000000,578.000000 
	C1.000000,385.666656 1.000000,193.333328 1.000000,1.000000 
	C197.000000,1.000000 393.000000,1.000000 589.000000,1.000000 
	C589.000000,193.333328 589.000000,385.666656 589.000000,578.000000 
	C498.500000,578.000000 408.000000,578.000000 317.000000,578.000000 
M219.471695,556.915466 
	C243.449356,555.698669 267.526367,555.432800 291.143280,549.546570 
	C280.189972,543.459900 267.931763,543.518127 256.162445,541.393494 
	C256.162445,527.569702 256.162445,514.000244 256.162445,500.596008 
	C289.868591,500.044922 323.250519,499.499146 356.744354,498.951508 
	C356.744354,512.580627 356.744354,526.813904 356.744354,541.147339 
	C345.390686,543.505493 333.847900,544.114136 323.355011,549.718628 
	C327.993958,551.379395 332.618134,552.759338 337.297180,552.981018 
	C368.231781,554.446167 399.168823,556.200806 430.124573,556.739807 
	C446.391144,557.023071 462.704346,555.137878 478.979126,553.986755 
	C482.049316,553.769470 485.037689,552.395325 488.063812,551.555054 
	C488.017426,551.090271 487.971008,550.625549 487.924622,550.160767 
	C486.279510,549.451477 484.694794,548.495422 482.978882,548.075562 
	C475.553101,546.258606 468.073334,544.661743 460.650024,542.835205 
	C458.833832,542.388367 456.519867,541.863770 455.513306,540.549133 
	C444.301941,525.906067 429.230377,522.227295 411.891022,524.779114 
	C404.198212,525.911316 396.530853,527.216187 388.337372,528.524841 
	C388.337372,517.125061 388.559784,506.315979 388.225342,495.524170 
	C388.095825,491.344360 389.368805,489.515900 393.347168,488.130188 
	C413.888702,480.975494 432.755249,470.717834 447.593903,454.555054 
	C472.723907,427.182526 480.480377,394.478027 475.683380,358.207214 
	C475.470154,356.595062 476.093140,354.293793 477.199005,353.178192 
	C485.284180,345.021881 493.732147,337.223297 501.759552,329.012573 
	C504.831818,325.870087 507.230194,324.959412 511.567902,326.997223 
	C523.460327,332.584229 529.379028,331.204132 538.093994,321.354156 
	C547.107483,311.166779 550.807983,298.879608 551.005127,285.500427 
	C551.159668,275.013428 545.391663,270.233978 535.015564,272.022003 
	C532.414246,272.470215 529.935242,273.587616 527.364563,274.262360 
	C522.753296,275.472626 518.115173,276.580475 513.039001,277.842865 
	C512.604248,274.862061 512.297180,272.592743 511.939209,270.331451 
	C510.593140,261.828613 508.361786,253.651733 502.056793,247.333511 
	C496.721008,241.986526 490.085938,242.785202 487.044495,249.689651 
	C485.175812,253.931808 484.284912,258.969849 484.354156,263.629669 
	C484.536896,275.925110 485.522766,288.207397 486.076050,300.500000 
	C486.147583,302.089325 485.963165,303.943390 485.200104,305.275482 
	C480.592407,313.319336 474.329712,319.870514 466.850281,325.289246 
	C445.590271,301.186218 445.590271,301.186218 410.752472,285.925720 
	C410.772705,285.778198 410.737244,285.571045 410.821655,285.492157 
	C411.907623,284.476898 412.990417,283.456635 414.112640,282.482086 
	C423.222931,274.570312 429.932159,265.053314 433.984985,253.616608 
	C452.243530,202.092560 424.376587,146.737778 371.992249,131.190079 
	C360.934418,127.908119 349.509460,125.863136 337.971527,123.182655 
	C338.546875,122.276939 339.187653,121.338455 339.758148,120.359047 
	C344.074463,112.949181 342.565643,109.276894 334.125549,108.788277 
	C326.693115,108.358009 319.095428,108.498222 311.733154,109.537308 
	C280.761688,113.908493 251.701202,124.245544 224.334244,139.232483 
	C190.284897,157.878906 159.678146,180.891968 135.540787,211.679245 
	C131.582840,216.727646 128.306396,222.476791 125.641792,228.324371 
	C123.139458,233.815887 125.762024,237.479446 131.753891,237.924622 
	C134.711090,238.144333 137.812469,238.064560 140.689682,237.415619 
	C149.736542,235.375168 158.708038,233.000656 167.901138,230.707489 
	C167.901138,255.810577 167.901138,280.874298 167.901138,305.635132 
	C155.281448,307.799561 142.904694,309.563324 130.689728,312.104797 
	C114.026718,315.571716 97.620743,320.063080 83.468391,330.134552 
	C66.723282,342.051147 64.801071,359.233582 78.329315,374.785522 
	C86.172821,383.802338 96.212791,389.671082 107.123314,394.036774 
	C116.029694,397.600525 125.155029,400.617096 133.791840,403.734985 
	C133.791840,410.113770 133.372345,416.394623 133.937653,422.585571 
	C134.321854,426.793060 137.475662,428.810547 141.919098,429.416534 
	C147.983871,430.243652 152.227280,427.441254 156.035110,423.531555 
	C159.992859,419.467926 163.685760,415.146423 168.194611,410.164032 
	C168.194611,412.870880 168.192612,414.491516 168.194931,416.112183 
	C168.225769,437.608032 168.260574,459.103851 168.287308,480.599701 
	C168.304214,494.187164 174.260254,500.217499 187.610184,500.167664 
	C193.609192,500.145294 199.608307,500.150543 205.607376,500.147858 
	C212.219589,500.144867 218.831802,500.147125 225.684586,500.147125 
	C225.684586,510.168488 225.684586,519.587646 225.684586,529.235413 
	C216.479568,527.636780 207.530334,525.624573 198.469406,524.612305 
	C183.539322,522.944336 169.717484,525.483093 160.052460,538.449890 
	C157.918091,541.313416 155.569839,542.300293 152.354462,542.917847 
	C144.683014,544.391296 137.056946,546.127502 129.467590,547.982727 
	C127.619812,548.434448 125.984467,549.755127 123.743706,550.946106 
	C134.029938,556.252136 159.457031,557.742920 219.471695,556.915466 
M115.676102,180.823929 
	C119.920593,185.473007 124.165085,190.122101 127.978737,194.299271 
	C170.927536,146.683609 220.728409,110.674881 284.467041,96.535278 
	C284.465607,96.530861 284.418121,96.013329 284.158264,95.646133 
	C271.369659,77.576096 258.662994,59.446648 245.706467,41.497604 
	C240.826904,34.737823 233.642532,31.610952 225.450134,31.226175 
	C219.979523,30.969233 214.423889,30.920309 208.998596,31.560532 
	C173.444305,35.756207 144.479446,52.531040 120.864769,78.882164 
	C106.836784,94.535721 95.647240,111.972786 90.767387,132.799850 
	C88.295326,143.350555 90.105171,152.945267 97.677544,161.123367 
	C103.560677,167.477127 109.356270,173.911957 115.676102,180.823929 
z"/>
<path fill="#030303" opacity="1.000000" stroke="none" 
	d="
M218.976013,556.926147 
	C159.457031,557.742920 134.029938,556.252136 123.743706,550.946106 
	C125.984467,549.755127 127.619812,548.434448 129.467590,547.982727 
	C137.056946,546.127502 144.683014,544.391296 152.354462,542.917847 
	C155.569839,542.300293 157.918091,541.313416 160.052460,538.449890 
	C169.717484,525.483093 183.539322,522.944336 198.469406,524.612305 
	C207.530334,525.624573 216.479568,527.636780 225.684586,529.235413 
	C225.684586,519.587646 225.684586,510.168488 225.684586,500.147125 
	C218.831802,500.147125 212.219589,500.144867 205.607376,500.147858 
	C199.608307,500.150543 193.609192,500.145294 187.610184,500.167664 
	C174.260254,500.217499 168.304214,494.187164 168.287308,480.599701 
	C168.260574,459.103851 168.225769,437.608032 168.194931,416.112183 
	C168.192612,414.491516 168.194611,412.870880 168.194611,410.164032 
	C163.685760,415.146423 159.992859,419.467926 156.035110,423.531555 
	C152.227280,427.441254 147.983871,430.243652 141.919098,429.416534 
	C137.475662,428.810547 134.321854,426.793060 133.937653,422.585571 
	C133.372345,416.394623 133.791840,410.113770 133.791840,403.734985 
	C125.155029,400.617096 116.029694,397.600525 107.123314,394.036774 
	C96.212791,389.671082 86.172821,383.802338 78.329315,374.785522 
	C64.801071,359.233582 66.723282,342.051147 83.468391,330.134552 
	C97.620743,320.063080 114.026718,315.571716 130.689728,312.104797 
	C142.904694,309.563324 155.281448,307.799561 167.901138,305.635132 
	C167.901138,280.874298 167.901138,255.810577 167.901138,230.707489 
	C158.708038,233.000656 149.736542,235.375168 140.689682,237.415619 
	C137.812469,238.064560 134.711090,238.144333 131.753891,237.924622 
	C125.762024,237.479446 123.139458,233.815887 125.641792,228.324371 
	C128.306396,222.476791 131.582840,216.727646 135.540787,211.679245 
	C159.678146,180.891968 190.284897,157.878906 224.334244,139.232483 
	C251.701202,124.245544 280.761688,113.908493 311.733154,109.537308 
	C319.095428,108.498222 326.693115,108.358009 334.125549,108.788277 
	C342.565643,109.276894 344.074463,112.949181 339.758148,120.359047 
	C339.187653,121.338455 338.546875,122.276939 337.971527,123.182655 
	C349.509460,125.863136 360.934418,127.908119 371.992249,131.190079 
	C424.376587,146.737778 452.243530,202.092560 433.984985,253.616608 
	C429.932159,265.053314 423.222931,274.570312 414.112640,282.482086 
	C412.990417,283.456635 411.907623,284.476898 410.821655,285.492157 
	C410.737244,285.571045 410.772705,285.778198 410.752472,285.925720 
	C445.590271,301.186218 445.590271,301.186218 466.850281,325.289246 
	C474.329712,319.870514 480.592407,313.319336 485.200104,305.275482 
	C485.963165,303.943390 486.147583,302.089325 486.076050,300.500000 
	C485.522766,288.207397 484.536896,275.925110 484.354156,263.629669 
	C484.284912,258.969849 485.175812,253.931808 487.044495,249.689651 
	C490.085938,242.785202 496.721008,241.986526 502.056793,247.333511 
	C508.361786,253.651733 510.593140,261.828613 511.939209,270.331451 
	C512.297180,272.592743 512.604248,274.862061 513.039001,277.842865 
	C518.115173,276.580475 522.753296,275.472626 527.364563,274.262360 
	C529.935242,273.587616 532.414246,272.470215 535.015564,272.022003 
	C545.391663,270.233978 551.159668,275.013428 551.005127,285.500427 
	C550.807983,298.879608 547.107483,311.166779 538.093994,321.354156 
	C529.379028,331.204132 523.460327,332.584229 511.567902,326.997223 
	C507.230194,324.959412 504.831818,325.870087 501.759552,329.012573 
	C493.732147,337.223297 485.284180,345.021881 477.199005,353.178192 
	C476.093140,354.293793 475.470154,356.595062 475.683380,358.207214 
	C480.480377,394.478027 472.723907,427.182526 447.593903,454.555054 
	C432.755249,470.717834 413.888702,480.975494 393.347168,488.130188 
	C389.368805,489.515900 388.095825,491.344360 388.225342,495.524170 
	C388.559784,506.315979 388.337372,517.125061 388.337372,528.524841 
	C396.530853,527.216187 404.198212,525.911316 411.891022,524.779114 
	C429.230377,522.227295 444.301941,525.906067 455.513306,540.549133 
	C456.519867,541.863770 458.833832,542.388367 460.650024,542.835205 
	C468.073334,544.661743 475.553101,546.258606 482.978882,548.075562 
	C484.694794,548.495422 486.279510,549.451477 487.924622,550.160767 
	C487.971008,550.625549 488.017426,551.090271 488.063812,551.555054 
	C485.037689,552.395325 482.049316,553.769470 478.979126,553.986755 
	C462.704346,555.137878 446.391144,557.023071 430.124573,556.739807 
	C399.168823,556.200806 368.231781,554.446167 337.297180,552.981018 
	C332.618134,552.759338 327.993958,551.379395 323.355011,549.718628 
	C333.847900,544.114136 345.390686,543.505493 356.744354,541.147339 
	C356.744354,526.813904 356.744354,512.580627 356.744354,498.951508 
	C323.250519,499.499146 289.868591,500.044922 256.162445,500.596008 
	C256.162445,514.000244 256.162445,527.569702 256.162445,541.393494 
	C267.931763,543.518127 280.189972,543.459900 291.143280,549.546570 
	C267.526367,555.432800 243.449356,555.698669 218.976013,556.926147 
M383.788696,357.931519 
	C380.095520,344.131042 372.487122,333.126495 358.885742,328.103119 
	C350.271362,324.921539 340.901611,322.695984 331.761719,322.243896 
	C309.983704,321.166718 288.139954,321.453552 266.325592,321.041199 
	C262.707489,320.972809 261.867249,322.385437 261.877533,325.755585 
	C261.978760,358.908203 261.933807,392.061218 261.955688,425.214142 
	C261.956543,426.484497 262.213898,427.754669 262.354858,429.053925 
	C282.853210,429.053925 303.000366,429.343079 323.132050,428.912079 
	C331.231171,428.738739 339.425110,427.572571 347.351440,425.834564 
	C366.190826,421.703613 378.741669,410.395996 383.659271,391.444092 
	C386.467712,380.620575 386.188904,369.669189 383.788696,357.931519 
M298.498840,286.834717 
	C306.146057,286.565491 313.826263,286.656158 321.434204,285.958496 
	C342.918274,283.988373 356.004150,272.106171 359.520966,250.940933 
	C360.654633,244.118057 360.873535,236.960968 360.272186,230.064789 
	C358.113068,205.303970 346.029846,192.876846 321.148254,191.416687 
	C301.909180,190.287689 282.560089,191.030991 263.259857,190.965378 
	C262.984192,190.964447 262.707489,191.268234 262.275513,191.520905 
	C262.275513,223.117996 262.275513,254.790375 262.275513,286.836914 
	C274.257965,286.836914 285.878571,286.836914 298.498840,286.834717 
M98.420143,353.919281 
	C100.007301,356.014404 101.150787,358.996460 103.258553,360.050873 
	C112.292412,364.570038 121.381195,369.172546 130.882553,372.515015 
	C142.758148,376.692749 155.210144,378.767242 167.838211,379.436127 
	C167.838211,364.398315 167.838211,349.840149 167.838211,333.951355 
	C152.072708,337.021149 136.769440,339.344513 121.851288,343.169830 
	C113.836914,345.224884 106.483849,349.858917 98.420143,353.919281 
z"/>
<path fill="#030303" opacity="1.000000" stroke="none" 
	d="
M115.433434,180.567337 
	C109.356270,173.911957 103.560677,167.477127 97.677544,161.123367 
	C90.105171,152.945267 88.295326,143.350555 90.767387,132.799850 
	C95.647240,111.972786 106.836784,94.535721 120.864769,78.882164 
	C144.479446,52.531040 173.444305,35.756207 208.998596,31.560532 
	C214.423889,30.920309 219.979523,30.969233 225.450134,31.226175 
	C233.642532,31.610952 240.826904,34.737823 245.706467,41.497604 
	C258.662994,59.446648 271.369659,77.576096 284.158264,95.646133 
	C284.418121,96.013329 284.465607,96.530861 284.467041,96.535278 
	C220.728409,110.674881 170.927536,146.683609 127.978737,194.299271 
	C124.165085,190.122101 119.920593,185.473007 115.433434,180.567337 
z"/>
<path fill="#FBFBFB" opacity="1.000000" stroke="none" 
	d="
M383.864441,358.341156 
	C386.188904,369.669189 386.467712,380.620575 383.659271,391.444092 
	C378.741669,410.395996 366.190826,421.703613 347.351440,425.834564 
	C339.425110,427.572571 331.231171,428.738739 323.132050,428.912079 
	C303.000366,429.343079 282.853210,429.053925 262.354858,429.053925 
	C262.213898,427.754669 261.956543,426.484497 261.955688,425.214142 
	C261.933807,392.061218 261.978760,358.908203 261.877533,325.755585 
	C261.867249,322.385437 262.707489,320.972809 266.325592,321.041199 
	C288.139954,321.453552 309.983704,321.166718 331.761719,322.243896 
	C340.901611,322.695984 350.271362,324.921539 358.885742,328.103119 
	C372.487122,333.126495 380.095520,344.131042 383.864441,358.341156 
M316.183899,350.157471 
	C308.402405,350.157471 300.620880,350.157471 292.593872,350.157471 
	C292.593872,366.082245 292.593872,381.629700 292.593872,398.423828 
	C304.170929,397.537598 315.415985,397.038971 326.554474,395.671783 
	C332.143738,394.985718 336.649109,391.601898 339.239502,386.190582 
	C347.059845,369.854065 338.344330,353.244354 320.566895,350.685394 
	C319.414398,350.519501 318.260590,350.362579 316.183899,350.157471 
z"/>
<path fill="#F9F9F9" opacity="1.000000" stroke="none" 
	d="
M297.999023,286.835815 
	C285.878571,286.836914 274.257965,286.836914 262.275513,286.836914 
	C262.275513,254.790375 262.275513,223.117996 262.275513,191.520905 
	C262.707489,191.268234 262.984192,190.964447 263.259857,190.965378 
	C282.560089,191.030991 301.909180,190.287689 321.148254,191.416687 
	C346.029846,192.876846 358.113068,205.303970 360.272186,230.064789 
	C360.873535,236.960968 360.654633,244.118057 359.520966,250.940933 
	C356.004150,272.106171 342.918274,283.988373 321.434204,285.958496 
	C313.826263,286.656158 306.146057,286.565491 297.999023,286.835815 
M314.070496,258.992737 
	C331.173828,256.111694 338.557678,245.174210 335.150269,227.728928 
	C333.693085,220.268555 329.512512,215.036835 322.196442,212.702271 
	C311.525909,209.297241 300.607666,210.892624 289.965698,210.688187 
	C289.965698,227.291718 289.965698,243.180542 289.965698,259.072174 
	C297.920715,259.072174 305.537903,259.072174 314.070496,258.992737 
z"/>
<path fill="#FAFAFA" opacity="1.000000" stroke="none" 
	d="
M98.626266,353.624268 
	C106.483849,349.858917 113.836914,345.224884 121.851288,343.169830 
	C136.769440,339.344513 152.072708,337.021149 167.838211,333.951355 
	C167.838211,349.840149 167.838211,364.398315 167.838211,379.436127 
	C155.210144,378.767242 142.758148,376.692749 130.882553,372.515015 
	C121.381195,369.172546 112.292412,364.570038 103.258553,360.050873 
	C101.150787,358.996460 100.007301,356.014404 98.626266,353.624268 
z"/>
<path fill="#070707" opacity="1.000000" stroke="none" 
	d="
M316.645630,350.179443 
	C318.260590,350.362579 319.414398,350.519501 320.566895,350.685394 
	C338.344330,353.244354 347.059845,369.854065 339.239502,386.190582 
	C336.649109,391.601898 332.143738,394.985718 326.554474,395.671783 
	C315.415985,397.038971 304.170929,397.537598 292.593872,398.423828 
	C292.593872,381.629700 292.593872,366.082245 292.593872,350.157471 
	C300.620880,350.157471 308.402405,350.157471 316.645630,350.179443 
z"/>
<path fill="#030303" opacity="1.000000" stroke="none" 
	d="
M313.612793,259.032471 
	C305.537903,259.072174 297.920715,259.072174 289.965698,259.072174 
	C289.965698,243.180542 289.965698,227.291718 289.965698,210.688187 
	C300.607666,210.892624 311.525909,209.297241 322.196442,212.702271 
	C329.512512,215.036835 333.693085,220.268555 335.150269,227.728928 
	C338.557678,245.174210 331.173828,256.111694 313.612793,259.032471 
z"/>
</svg>